<?xml version="1.0" encoding="UTF-8"?>
<svg id="_レイヤー_1" data-name="レイヤー_1" xmlns="http://www.w3.org/2000/svg" version="1.1" viewBox="0 0 250 60">
  <!-- Generator: Adobe Illustrator 29.1.0, SVG Export Plug-In . SVG Version: 2.1.0 Build 142)  -->
  <defs>
    <style>
      .st0 {
        fill: #fba6c6;
      }

      .st1 {
        fill: #6d6b6b;
      }
    </style>
  </defs>
  <g>
    <path class="st0" d="M247.27,11.48c-3.6-9.54-15.47-5.37-22.28-.5.28-3.67-.41-7.3-3.67-9.15-4.16-2.36-9.19.2-12.12,3.87-3.87,4.83-4.99,11.64-3.84,17.79.68,3.65,1.61,10.23,6.22,9.05,1.76-.45,1.35-3.56-.43-3.11-1.89.49-2.8-5.3-3.02-6.5-.69-3.69-.54-7.59.85-11.13,1.36-3.47,3.97-6.82,7.43-7.53,5.83-1.19,6.41,5,5.31,9.69-.33,1.4.99,2.93,2.17,1.77,4.12-4.03,21.12-12.83,21.11-.43,0,8.63-11.9,15.57-17.91,18.41-1.68.79-.55,3.65,1.13,2.86,7.35-3.47,23.37-13.65,19.05-25.1Z"/>
    <path class="st1" d="M168.61,41.35l.02-1.14-.02-1.18,1.86-1.05c.84-.48,1.58-.81,2.21-.99.63-.18,1.3-.27,2.02-.27,1.57,0,2.83.35,3.79,1.06.96.7,1.54,1.6,1.73,2.69.14.82.22,2.84.26,6.08.02,3.05.09,4.74.2,5.06.11.32.4.48.85.48h1.33v1.13c-1.3-.08-2.2-.12-2.71-.12-.64,0-1.49.04-2.56.12l.02-1.52c0-.49,0-.98-.02-1.48l-3.53,2.69c-.32.24-.63.41-.94.5-.31.1-.73.14-1.28.14-1.47,0-2.59-.36-3.36-1.08-.77-.72-1.16-1.69-1.16-2.9,0-1.15.28-2.15.83-3,.55-.86,1.34-1.49,2.35-1.9,1.02-.41,3.38-.94,7.08-1.6-.02-1.44-.34-2.52-.95-3.24-.77-.9-1.87-1.35-3.31-1.35-.54,0-1.06.07-1.53.2-.48.13-.92.33-1.33.6-.33.81-.63,1.59-.9,2.34l-.96-.25ZM177.59,44.06c-3.16.68-5.17,1.32-6.02,1.91-.85.6-1.28,1.52-1.28,2.77,0,.84.24,1.51.73,2.01.49.5,1.12.76,1.89.76.85,0,1.67-.24,2.44-.72.78-.48,1.52-1.18,2.23-2.13l-.03-3.77.03-.83Z"/>
    <path class="st1" d="M198.17,37.75v-6.19c0-.72-.08-1.17-.24-1.35-.16-.18-.52-.27-1.09-.27h-1.47v-1.02c2.03-.14,3.92-.55,5.68-1.24l.31.2c-.08,1.16-.15,2.56-.2,4.2l-.07,4.54-.03,1.47v10.18c0,1.9.06,2.96.17,3.17.17.31.64.51,1.41.61l1.21.15v.99c-1.4-.1-2.64-.15-3.71-.15-.19,0-.91.05-2.15.15.08-.77.14-1.86.19-3.28-.96.75-2.2,1.8-3.69,3.14-.97.32-1.82.48-2.55.48-1.92,0-3.53-.72-4.82-2.17-1.29-1.44-1.94-3.38-1.94-5.8,0-1.51.25-2.8.75-3.87.5-1.07,1.1-1.84,1.79-2.33.69-.48,1.77-1.09,3.23-1.83,1.13-.56,2.16-.84,3.12-.84.65,0,1.31.09,2,.26.69.17,1.39.43,2.12.78ZM198.17,40.69c-.78-.84-1.6-1.47-2.44-1.89-.84-.42-1.73-.63-2.65-.63-1.49,0-2.68.54-3.59,1.63-.91,1.09-1.36,2.68-1.36,4.77s.52,3.8,1.56,5.01c1.04,1.21,2.3,1.82,3.79,1.82.91,0,1.74-.25,2.5-.76.76-.51,1.32-1.16,1.67-1.97.35-.81.53-2.08.53-3.81v-4.17Z"/>
    <path class="st1" d="M212.12,36.65l.41.26c-.08.85-.13,1.79-.15,2.81-.08,3.32-.12,5.77-.12,7.35,0,1.48.05,2.74.15,3.78.05.41.15.69.32.85.17.16.58.28,1.23.36l1.16.15v.99c-1.66-.08-3.17-.12-4.53-.12s-2.69.04-4.06.12v-.99l1.47-.15c.57-.05.92-.15,1.05-.32.13-.17.21-.72.25-1.65.06-1.45.08-3.44.08-5.98,0-1.77-.03-3.13-.08-4.08-.02-.35-.12-.6-.3-.75-.18-.15-.57-.22-1.18-.22h-1.28v-.99c1.39-.2,2.41-.39,3.06-.56.65-.17,1.5-.46,2.53-.86Z"/>
    <g>
      <path class="st1" d="M161.76,44.78v-9.21c0-5.41.06-8.39.18-8.95.19-.84.92-1.27,2.19-1.27h1.57v-1.29c-2,.1-3.63.14-4.9.14s-2.91-.05-5.11-.14v1.29l1.53.14c1.37.14,2.16.46,2.36.97.2.51.3,3.51.3,9v10.79l1.96,2.4c-.05-1.4-.08-2.69-.08-3.87Z"/>
      <path class="st1" d="M134,25.35h-1.27v-1.29c1.73.1,3.05.14,3.96.14.98,0,2.06-.05,3.23-.14,1.35,1.65,2.62,3.25,3.81,4.81,1.19,1.56,2.43,3.13,3.71,4.71l6.99,8.58c2.52,3.08,4.34,5.22,5.45,6.41v-.02l2.06,2.53c.04.83.09,1.69.15,2.58-1.85-.29-2.93-.49-3.23-.62-.3-.13-.59-.34-.86-.65-.71-.79-1.45-1.63-2.19-2.5h.07s-18.67-22.9-18.67-22.9c0,0-1.14-1.64-3.21-1.64Z"/>
      <path class="st1" d="M136.68,33.77v10.15c0,2.58-.08,4.61-.23,6.11-.07.72-.24,1.2-.51,1.45-.27.24-.85.37-1.74.37h-1.47v1.29c2.99-.1,4.9-.14,5.73-.14,1.2,0,2.55.05,4.03.14v-1.29l-1.31-.1c-1.08-.1-1.73-.25-1.96-.46-.22-.21-.38-.8-.48-1.77-.12-1.27-.18-3.51-.18-6.72v-11.85l-1.94-2.37c.03,1.72.06,3.45.06,5.2Z"/>
    </g>
  </g>
  <g>
    <path class="st0" d="M54.05,36.24c-.33-.15-.81-.22-1.44-.22s-1.18.15-1.73.46c-.55.31-1.14.88-1.78,1.7-.54.7-1.03,1.27-1.49,1.7l.07-3.39c0-.24-.02-.39-.07-.46-.05-.07-.13-.1-.26-.1-.1,0-.23.04-.39.12-.67.31-1.44.56-2.3.76-.87.2-1.85.36-2.95.49v.99h1.43c.78,0,1.25.15,1.4.46.21.48.32,2.09.32,4.83,0,2.25-.04,4.19-.12,5.83-.05.93-.15,1.48-.3,1.65-.15.17-.52.28-1.1.32l-1.64.14v.99c1.48-.08,2.97-.12,4.48-.12s3.2.04,4.94.12v-.99h-1.02c-.84,0-1.48-.12-1.91-.36-.18-.1-.3-.35-.34-.75-.13-1.08-.19-2.4-.19-3.98,0-2.39.1-4,.29-4.82.19-.82.58-1.45,1.15-1.91.57-.45,1.19-.68,1.86-.68.5,0,.93.12,1.28.36.36.24.67.65.93,1.23h.77c.02-1.66.13-2.95.31-3.87l.02-.17c0-.15-.08-.26-.24-.32Z"/>
    <path class="st0" d="M64.82,36.02c-1.33,0-2.7.39-4.11,1.18-1.41.78-2.38,1.64-2.9,2.56-.8,1.4-1.19,3.05-1.19,4.96,0,2.5.71,4.48,2.12,5.94,1.42,1.46,3.28,2.19,5.58,2.19,1.06,0,2.09-.14,3.09-.41,1-.27,1.97-.68,2.92-1.23l.55-1.43-.29-.26c-.77.52-1.55.91-2.33,1.18-.78.26-1.57.39-2.37.39-1.77,0-3.2-.58-4.29-1.74-1.09-1.16-1.66-2.86-1.72-5.1h4.25c2.16,0,3.84-.05,5.06-.14.68-.06,1.4-.18,2.14-.36l.03-1.01c0-2.13-.59-3.78-1.77-4.96-1.18-1.18-2.77-1.77-4.78-1.77ZM68.22,42.98c-.8.08-1.62.12-2.47.12-2.12,0-4.07-.04-5.83-.12.02-1.97.41-3.41,1.18-4.35.76-.93,1.78-1.4,3.05-1.4.82,0,1.54.19,2.17.55.62.37,1.06.83,1.31,1.39.4.9.6,1.85.6,2.85v.96Z"/>
    <path class="st0" d="M101.17,51.02c-.17-.27-.26-1.15-.26-2.64l.07-6.67c0-1.31-.2-2.34-.61-3.11-.4-.76-1.02-1.38-1.85-1.86-.83-.48-1.76-.72-2.78-.72-.67,0-1.37.12-2.08.38-.55.18-1.01.44-1.38.78l-2.2,2.01c-.65-1.19-1.36-2.02-2.14-2.48-.78-.46-1.81-.69-3.09-.69-.58,0-1.17.1-1.76.31-.41.14-.8.37-1.16.7l-2.28,2.05c-.01-.78,0-1.48.03-2.11l.04-.62c0-.27-.1-.41-.31-.41l-1.24.48c-1.2.4-2.64.71-4.31.94v.94h1.06c.81,0,1.29.07,1.45.2.16.14.26.46.29.97.03.51.05,2.2.05,5.04,0,3.89-.07,6.03-.22,6.42-.15.39-.59.59-1.33.59h-1.3v.99c1.68-.08,3.24-.12,4.67-.12,1.26,0,2.6.04,4.02.12v-.99l-1.18-.14c-.83-.08-1.32-.19-1.47-.34-.15-.15-.23-.49-.26-1.03-.05-1.15-.07-2.95-.07-5.39,0-2.23.08-3.58.25-4.06.26-.69.75-1.29,1.47-1.77.72-.49,1.51-.73,2.39-.73.82,0,1.52.2,2.11.6.59.4,1,.94,1.24,1.63.24.69.37,1.94.37,3.75,0,2.03-.05,3.97-.14,5.84-.03.72-.15,1.17-.36,1.37-.2.19-.65.29-1.33.29h-1.14v.99c2.16-.08,3.61-.12,4.36-.12.94,0,2.42.04,4.43.12v-.99l-1.14-.14c-.83-.09-1.32-.2-1.48-.32-.15-.12-.25-.33-.28-.62-.03-.29-.05-1.49-.05-3.6,0-3.58.06-5.6.17-6.07.17-.75.61-1.39,1.31-1.92.7-.54,1.55-.8,2.53-.8.88,0,1.6.21,2.18.64.58.43.97,1.01,1.17,1.76.2.75.31,2.31.31,4.69,0,2.81-.08,5.27-.24,7.38.96-.08,1.8-.12,2.52-.12.47,0,1.37.03,2.69.08l.82.04v-.99l-1.25-.05c-.71-.03-1.15-.18-1.32-.45Z"/>
    <path class="st0" d="M119.96,51.38c-.45,0-.74-.16-.85-.48-.12-.32-.18-2-.21-5.06-.03-3.23-.12-5.26-.26-6.08-.19-1.09-.77-1.99-1.73-2.69-.96-.7-2.23-1.05-3.79-1.05-.72,0-1.39.09-2.02.27-.63.18-1.37.51-2.21.99l-1.86,1.06.02,1.18-.02,1.14.96.26c.27-.74.57-1.52.9-2.34.41-.27.85-.47,1.33-.6.48-.13.99-.2,1.53-.2,1.43,0,2.53.45,3.31,1.35.61.72.93,1.8.96,3.24-3.71.66-6.07,1.19-7.08,1.6-1.02.41-1.8,1.04-2.35,1.9-.55.86-.83,1.86-.83,3,0,1.21.39,2.18,1.16,2.9.77.72,1.89,1.08,3.36,1.08.55,0,.97-.05,1.28-.14.31-.1.62-.26.94-.5l3.53-2.69c.01.5.02.99.02,1.48l-.02,1.52c1.07-.08,1.92-.12,2.56-.12.51,0,1.41.04,2.71.12v-1.13h-1.33ZM116.02,47.98c-.71.94-1.45,1.65-2.23,2.13-.78.48-1.59.72-2.45.72-.77,0-1.4-.25-1.89-.76-.49-.51-.73-1.18-.73-2.02,0-1.25.43-2.17,1.28-2.76.85-.59,2.86-1.23,6.02-1.91l-.03.83.03,3.78Z"/>
    <path class="st0" d="M28.78,19.43c-.56,7.38-1.5,11.7-1.93,14.59-2.04,13.58-6.17,21.14-12.27,22.46-3.81.83-6.5-.46-8.18-3.9.12-.27.18-.58.18-.89,0-1.27-1.03-2.29-2.29-2.29s-2.29,1.03-2.29,2.29c0,.1.02.2.03.31h-.03c.01.05.03.1.05.14.04.19.1.36.18.53,1.48,4.12,3.96,6.38,7.42,6.73,1.12.11,2.35.03,3.68-.26,9.26-2.01,15.18-10.3,17.59-24.64.36-2.13.66-4.6.89-7.33.23-2.75.4-5.86.49-9.24v-.55s-3.5,1.75-3.5,1.75l-.02.32Z"/>
    <path class="st0" d="M32.45,10.62c.28-3.67-.41-7.3-3.67-9.15-4.16-2.37-9.18.2-12.12,3.87-3.87,4.83-4.99,11.65-3.84,17.79.68,3.66,1.61,10.23,6.22,9.05,1.76-.45,1.35-3.56-.43-3.11-1.89.48-2.79-5.3-3.02-6.5-.69-3.69-.54-7.59.85-11.13,1.36-3.47,3.97-6.82,7.43-7.53,5.84-1.19,6.41,5,5.31,9.69-.33,1.4.99,2.93,2.17,1.77,4.11-4.03,21.13-12.83,21.12-.43,0,8.63-11.9,15.57-17.91,18.41-1.68.79-.55,3.65,1.13,2.86,7.35-3.47,23.37-13.65,19.05-25.1-3.6-9.54-15.47-5.37-22.28-.5Z"/>
  </g>
</svg>